<svg width="11" height="19" viewBox="0 0 11 19" fill="none" xmlns="http://www.w3.org/2000/svg">
<g id="Group">
<path id="Vector" d="M10.1971 9.15064C10.1702 8.91676 10.0645 8.69605 9.89433 8.51851L2.31126 0.503944C2.21158 0.370305 2.08185 0.257257 1.93059 0.172193C1.77932 0.0871294 1.60993 0.0319797 1.4335 0.0103475C1.25706 -0.0112846 1.07758 0.00108529 0.906796 0.0466626C0.736012 0.09224 0.577784 0.169999 0.442475 0.274826C0.307167 0.379653 0.19783 0.509189 0.121627 0.654958C0.0454244 0.800727 0.00407479 0.959419 0.000286231 1.12067C-0.00350232 1.28192 0.0303553 1.4421 0.0996428 1.59067C0.16893 1.73925 0.272084 1.87288 0.402347 1.98282L7.28765 9.25795L0.402347 16.5331C0.272084 16.643 0.16893 16.7767 0.0996428 16.9253C0.0303553 17.0738 -0.00350232 17.234 0.000286231 17.3952C0.00407479 17.5565 0.0454244 17.7152 0.121627 17.861C0.19783 18.0067 0.307167 18.1363 0.442475 18.2411C0.577784 18.3459 0.736012 18.4237 0.906796 18.4693C1.07758 18.5148 1.25706 18.5272 1.4335 18.5056C1.60993 18.4839 1.77932 18.4288 1.93059 18.3437C2.08185 18.2586 2.21158 18.1456 2.31126 18.012L9.89433 9.99739C10.0046 9.88171 10.0883 9.7472 10.1403 9.60177C10.1923 9.45634 10.2116 9.30294 10.1971 9.15064Z" fill="white"/>
</g>
</svg>
